<svg id="Layer_1" data-name="Layer 1" xmlns="http://www.w3.org/2000/svg" viewBox="0 0 71.42 71.42"><path d="M396.21,303.36a71.65,71.65,0,0,1-6.43,6.6c-1.11.9-3.39,2.16-4.59,1.12s-.4-3.78.45-4.71c5.13-5.59,10.29-11.24,16.09-16.09,1.84-1.54,6.43-1.86,8.42-.61s2.55,5.12,3.34,7.95c.31,1.14-.24,2.64-.71,3.87-2.69,7.07-1,13.13,2.58,19.71,2.73,5.05,3.16,11.4,4.27,17.25.17.91-1.3,2.91-2.39,3.1-.58.1-2.75-1.18-2.82-2-1-11.05-7.41-18.22-16-24.27-1.51-1.06-1.63-4.41-1.94-6.76-.2-1.5.44-3.11.71-4.66Z" transform="translate(-360.23 -270.16)"/><path d="M366.08,336.78c-6.26-2.89-7-4.85-4.49-10.64l.6-1.37c4.88-10.81,4.88-10.81,16-7,.61-1,1-2.39,1.94-3.18,1.08-.95,2.54-2.73,3.88-2.1s1.38,3.41.9,4.67c-1.9,4.95-4.26,9.73-6.47,14.56-.41.89-.92,1.72-1.55,2.89C372.53,331.91,368.65,332.13,366.08,336.78Z" transform="translate(-360.23 -270.16)"/><path d="M412.36,284.83a7.34,7.34,0,1,1,7.47-7.2A7.55,7.55,0,0,1,412.36,284.83Z" transform="translate(-360.23 -270.16)"/><path d="M396.59,321l5.59,4.54c-3.26,5-6.31,9.85-9.67,14.52-.63.87-2.59,2-3.75,1.27s-1.28-3.19-.77-4.23C390.57,331.8,393.54,326.65,396.59,321Z" transform="translate(-360.23 -270.16)"/><path d="M418.4,300.62c3.65,1.81,7.42,3.46,10.92,5.55,1.1.66,2.8,2.42,2.22,3.78s-3.14,1.25-4.6,1.06c-1.73-.23-3.28-1.52-5-2.07C417.27,307.47,415.89,304.79,418.4,300.62Z" transform="translate(-360.23 -270.16)"/><circle cx="11.39" cy="67.8" r="3.62"/></svg>