<?xml version="1.0" encoding="utf-8"?>
<!-- Generator: Adobe Illustrator 24.3.0, SVG Export Plug-In . SVG Version: 6.00 Build 0)  -->
<svg version="1.1" id="Layer_1" xmlns="http://www.w3.org/2000/svg" xmlns:xlink="http://www.w3.org/1999/xlink" x="0px" y="0px"
	 viewBox="0 0 261 285.5" style="enable-background:new 0 0 261 285.5;" xml:space="preserve">
<style type="text/css">
	.st0{fill:#202020;}
</style>
<g id="Layer_2_1_">
	<g id="Layer_1-2">
		<g id="Layer_2-2">
			<g id="Layer_1-2-2">
				<path class="st0" d="M30.5,69.7L40.1,56c0.3,1.7,0.6,3.2,0.9,4.6c1.6,8.9,3.3,17.8,4.8,26.7c0.1,0.7,0,1.4-0.3,2
					c-4.5,9.2-9.2,18.4-13.7,27.6c-0.4,0.9-0.6,1.9-0.6,2.9c0.5,18.5,1.1,37.1,1.7,55.6c0.3,8.8,0.5,17.6,0.8,26.4
					c0,0.8,0.3,1.5,0.9,1.9c11.3,10,22.5,20,33.7,30.1c0.4,0.4,0.8,0.8,1,1.3c5.3,12.6,10.5,25.2,15.7,37.8c0.1,0.3,0.1,0.6,0.1,0.8
					c-1.6-1.4-3.1-2.8-4.6-4.1l-66-59.3c-0.7-0.6-1.1-1.4-1.1-2.2c-0.4-6.9-0.8-13.8-1.2-20.8c-0.6-10-1.2-19.9-1.8-29.9
					c-0.5-8.2-0.9-16.4-1.4-24.6c-0.3-5.6-0.7-11.2-0.9-16.9c0-0.7,0.1-1.5,0.4-2.2c3.8-7.8,7.7-15.6,11.5-23.3
					c0.3-0.6,0.4-1.3,0-1.9c-6.5-14.7-13-29.3-19.5-44C0.2,43.8,0,42.9,0,42.1V22.6c0-0.7,0.3-1.4,0.8-1.9C7.5,14,14.3,7.3,21,0.6
					c0.5-0.6,1.3-0.7,1.9-0.3c13.8,6.9,27.7,13.9,41.5,20.8c0.6,0.3,1.1,0.9,1.4,1.5c1,1.9,1.8,3.9,2.8,6l5.2-2.2
					c6.9-2.9,13.8-5.9,20.7-8.8c0.6-0.2,1.2-0.4,1.9-0.4h68.2c0.7,0,1.4,0.2,2,0.4c8.3,3.5,16.5,7,24.8,10.5l1,0.4
					c0.8-1.7,1.6-3.4,2.4-5.2c0.5-1.2,1.4-2.2,2.7-2.7c13.6-6.7,27.1-13.5,40.7-20.4c0.6-0.4,1.5-0.3,1.9,0.3l20,20
					c0.6,0.6,1,1.4,0.9,2.3v19.4c0,0.7-0.2,1.4-0.5,2.1c-6.5,14.8-13,29.5-19.6,44.3c-0.3,0.6-0.3,1.3,0.1,1.9
					c3.8,7.7,7.7,15.4,11.4,23.1c0.4,0.8,0.5,1.6,0.5,2.5c-0.9,16.3-1.8,32.7-2.8,49c-0.7,12.9-1.5,25.8-2.3,38.6
					c-0.1,0.6-0.1,1.1-0.1,1.7c0.4,3-1.1,5-3.3,6.9c-22.7,20.3-45.3,40.6-67.9,60.9l-0.9,0.7c0.2-0.6,0.2-0.9,0.4-1.1
					c5.2-12.5,10.4-25.1,15.7-37.6c0.3-0.6,0.7-1.2,1.2-1.6l33.5-30c0.5-0.4,0.8-1,0.9-1.7c0.7-22.9,1.4-45.7,2.1-68.6
					c0.1-4.8,0.3-9.5,0.4-14.3c0-0.6-0.1-1.3-0.4-1.8c-4.6-9.3-9.2-18.5-13.9-27.8c-0.4-0.8-0.5-1.7-0.3-2.5
					c1.9-10.1,3.7-20.1,5.5-30.2c0-0.3,0.1-0.6,0.2-0.8l9.5,13.7c0.2-0.3,0.4-0.7,0.5-1c4.7-11.6,9.5-23.1,14.2-34.7
					c0.3-0.6,0.2-1.4-0.3-1.8c-3.1-3.5-6.2-7-9.3-10.5c-0.3-0.5-1.1-0.7-1.6-0.4c0,0,0,0,0,0l0,0c-9,4.1-18,8.1-27,12.1
					c-0.6,0.2-1.1,0.7-1.1,1.4c-2.6,13.3-5.3,26.6-8,39.8c-0.1,0.2-0.2,0.5-0.3,1c-0.4-1.2-0.8-2.2-1.2-3.3
					c-2.7-7.6-5.4-15.2-8.1-22.8c-0.2-0.6-0.7-1-1.2-1.3c-8.6-3.3-17.2-6.6-25.8-9.9c-0.6-0.2-1.2-0.3-1.8-0.3h-57.9
					c-0.6,0-1.2,0.1-1.8,0.3C91.2,41.7,82.6,45,74,48.2c-0.6,0.2-1.1,0.7-1.2,1.3c-2.9,8.3-5.8,16.5-8.8,24.7
					c-0.1,0.4-0.3,0.8-0.6,1.4c-0.6-2.8-1.1-5.3-1.6-7.8c-2.2-11.1-4.4-22.1-6.7-33.2c-0.1-0.5-0.4-0.9-0.9-1.1L27,21.3
					c-0.5-0.3-1.1-0.2-1.4,0.2l0,0.1c-3.2,3.6-6.4,7.2-9.5,10.8c-0.3,0.4-0.4,0.9-0.2,1.4c4.8,11.8,9.6,23.5,14.4,35.3
					C30.3,69.2,30.4,69.4,30.5,69.7z"/>
				<path class="st0" d="M147.5,285.5c0.9-2.2,1.6-4.1,2.4-6c5.7-14.5,11.3-28.9,17-43.4c0.2-0.6,0.4-1.2,0.4-1.8v-57
					c0-0.4,0-0.7-0.1-1.1c-0.3,0.2-0.7,0.3-1,0.5c-11.5,7-23.1,14-34.6,20.9c-0.6,0.5-1.4,0.5-2,0c-11.4-7-22.9-13.9-34.4-20.8
					l-1.3-0.7c0,0.5-0.1,0.9-0.1,1.2v56.7c0,0.8,0.2,1.6,0.5,2.3c6.2,16,12.5,32,18.8,47.9c0.1,0.3,0.2,0.6,0.4,1.1
					c-0.3-0.1-0.6-0.2-0.9-0.3c-6.4-2.9-12.9-5.8-19.3-8.8c-0.5-0.2-0.9-0.6-1.1-1.1c-5.6-12.8-10.3-26-14.8-39.3
					c-0.1-0.5-0.2-1-0.2-1.5v-73.2c0-0.6,0.3-1.1,0.7-1.6c8.7-8.8,17.3-17.6,26-26.3c0.4-0.4,1-0.6,1.6-0.6c16.7,0,33.5,0,50.3,0
					c0.6,0,1.2,0.3,1.7,0.7c8.7,8.7,17.3,17.5,25.9,26.2c0.4,0.4,0.6,1,0.7,1.6v73.3c0,0.5-0.1,1.1-0.3,1.6
					c-4.4,13.1-9,26.2-14.6,38.9c-0.2,0.6-0.6,1-1.1,1.3c-6.6,3-13.2,6-19.7,9C148,285.3,147.8,285.4,147.5,285.5z M157.4,159.7
					c-0.3-0.3-0.6-0.6-0.8-0.9c-2.6-2.7-5.3-5.5-8-8.2c-0.4-0.4-1-0.6-1.6-0.7c-11.1,0-22.2,0-33.2,0c-0.5,0-1.1,0.3-1.5,0.6
					c-2.1,2-4,4.1-6.1,6.2c-0.9,0.9-1.8,1.9-2.7,2.9c0.2,0.2,0.3,0.2,0.4,0.3c8.6,5.7,17.2,11.5,25.8,17.2c0.5,0.3,1.1,0.3,1.5-0.1
					l14.2-9.5L157.4,159.7z"/>
				<path class="st0" d="M97.5,235l9.8-1.8c7.5-1.3,15-2.7,22.5-3.9c1.5-0.1,3,0.1,4.5,0.5c9.4,1.6,18.8,3.4,28.2,5
					c0.3,0,0.7,0.1,1,0.2c-0.2,0.5-0.4,1-0.5,1.5c-1.1,2.9-2.3,5.7-3.4,8.6c-0.1,0.5-0.6,0.8-1.1,0.8c-0.1,0-0.1,0-0.2-0.1
					c-8.9-1.6-17.9-3.3-26.9-4.7c-1.8-0.1-3.6,0.1-5.3,0.5c-7.8,1.4-15.6,2.8-23.5,4.1c-0.3,0.1-1-0.1-1.1-0.4
					C100.3,242.1,98.9,238.6,97.5,235z"/>
				<path class="st0" d="M108.4,103.7c-1.6,3.1-3.2,6.1-4.5,9.1c-0.5,1.5-2,2.4-3.5,2.2c-17.7-0.1-35.3,0-53-0.1h-1.5
					c0.4-0.9,0.8-1.6,1.1-2.2c1.4-2.8,2.8-5.5,4.1-8.3c0.2-0.5,0.7-0.9,1.3-0.8h55.3C107.8,103.6,108,103.7,108.4,103.7z"/>
				<path class="st0" d="M152.6,103.6h55.7c0.8-0.1,1.5,0.3,1.8,1.1c1.6,3.4,3.3,6.7,5.1,10.2c-0.5,0-0.9,0.1-1.3,0.1h-54.5
					c-0.7,0.1-1.4-0.3-1.6-1C156.1,110.6,154.4,107.2,152.6,103.6z"/>
			</g>
		</g>
	</g>
</g>
</svg>
